<?xml version="1.0" encoding="utf-8"?>
<!-- Generator: Adobe Illustrator 13.0.0, SVG Export Plug-In . SVG Version: 6.00 Build 14948)  -->
<!DOCTYPE svg [
	<!ENTITY ns_flows "http://ns.adobe.com/Flows/1.0/">
	<!ENTITY ns_extend "http://ns.adobe.com/Extensibility/1.0/">
	<!ENTITY ns_ai "http://ns.adobe.com/AdobeIllustrator/10.0/">
	<!ENTITY ns_graphs "http://ns.adobe.com/Graphs/1.0/">
]>
<svg version="1.2" baseProfile="tiny" id="Layer_1" xmlns:x="&ns_extend;" xmlns:i="&ns_ai;" xmlns:graph="&ns_graphs;"
	 xmlns="http://www.w3.org/2000/svg" xmlns:xlink="http://www.w3.org/1999/xlink" xmlns:a="http://ns.adobe.com/AdobeSVGViewerExtensions/3.0/"
	 x="0px" y="0px" width="50px" height="50px" viewBox="0 0 50 50" xml:space="preserve">
<linearGradient id="SVGID_1_" gradientUnits="userSpaceOnUse" x1="0" y1="24.9995" x2="50" y2="24.9995">
	<stop  offset="0" style="stop-color:#5E7BF8"/>
	<stop  offset="1" style="stop-color:#7D93FF"/>
	<a:midPointStop  offset="0" style="stop-color:#5E7BF8"/>
	<a:midPointStop  offset="0.5" style="stop-color:#5E7BF8"/>
	<a:midPointStop  offset="1" style="stop-color:#7D93FF"/>
</linearGradient>
<circle fill="url(#SVGID_1_)" cx="25" cy="25" r="25"/>
<linearGradient id="SVGID_2_" gradientUnits="userSpaceOnUse" x1="30.4287" y1="49.9995" x2="30.4287" y2="20.6157">
	<stop  offset="0" style="stop-color:#5E7BF8"/>
	<stop  offset="0.5" style="stop-color:#7C92FF"/>
	<stop  offset="1" style="stop-color:#7D93FF"/>
	<a:midPointStop  offset="0" style="stop-color:#5E7BF8"/>
	<a:midPointStop  offset="0.5" style="stop-color:#5E7BF8"/>
	<a:midPointStop  offset="0.5" style="stop-color:#7C92FF"/>
	<a:midPointStop  offset="0.5" style="stop-color:#7C92FF"/>
	<a:midPointStop  offset="1" style="stop-color:#7D93FF"/>
</linearGradient>
<path fill="url(#SVGID_2_)" d="M10.858,45.613C14.881,48.378,19.75,50,25,50c13.807,0,24.999-11.192,25-24.998
	c-4.022-2.764-8.892-4.386-14.142-4.386C22.052,20.615,10.859,31.807,10.858,45.613z"/>
<path fill="#FFFFFF" d="M25.516,40.433l15.228-19.338l-6.572-8.313l-0.283-0.026l-5.995-0.583h-5.78l-6.283,0.61l-6.573,8.312
	L24.49,40.439h0L25,41.087l0.507-0.645C25.51,40.44,25.512,40.436,25.516,40.433z M22.498,13.51h5.005l4.416,6.633H18.081
	L22.498,13.51z M32.155,21.481L25,38.299l-7.155-16.818H32.155z M33.601,21.499l4.957,0.212L27.581,35.647L33.601,21.499z
	 M16.4,21.499l6.019,14.148L11.443,21.71L16.4,21.499z M38.462,20.366l-4.927-0.209l-4.337-6.514l4.276,0.416L38.462,20.366z
	 M16.526,14.059l4.278-0.416l-4.338,6.513l-4.926,0.209L16.526,14.059z"/>
</svg>
